<svg aria-hidden="true" style="width:0;height:0;position:absolute;overflow:hidden" xmlns="http://www.w3.org/2000/svg"><defs><symbol id="icon-location" viewBox="0 0 32 32"><path fill="#fff" style="fill:var(--color1,#fff)" d="M16 2C9.928 2.008 5.008 6.929 5.001 13v.017c0 2.485.833 4.776 2.234 6.609l-.019-.026s.3.395.348.452L16 30l8.439-9.954c.044-.053.345-.446.345-.446v-.004a10.814 10.814 0 0 0 2.215-6.582v-.015V13c-.007-6.072-4.927-10.993-10.998-11.001H16zm0 15.001a4 4 0 0 1 0-8 4 4 0 0 1 0 8z"/></symbol></defs></svg>